<?xml version="1.0" standalone="no"?>
<!DOCTYPE svg PUBLIC "-//W3C//DTD SVG 20010904//EN"
 "http://www.w3.org/TR/2001/REC-SVG-20010904/DTD/svg10.dtd">
<svg version="1.0" xmlns="http://www.w3.org/2000/svg"
 width="495.000000pt" height="79.000000pt" viewBox="0 0 495.000000 79.000000"
 preserveAspectRatio="xMidYMid meet">

<g transform="translate(0.000000,79.000000) scale(0.100000,-0.100000)"
fill="#000000" stroke="none">
<path d="M4245 740 c-24 -26 -16 -86 23 -159 34 -66 80 -101 132 -101 20 0 43
-6 52 -12 21 -17 98 -110 98 -120 0 -4 -42 -56 -93 -115 -106 -122 -121 -145
-112 -174 5 -16 14 -19 38 -17 28 3 42 17 121 132 l90 129 28 -34 c15 -18 46
-68 68 -111 54 -103 84 -138 120 -138 64 0 72 67 13 119 -22 20 -77 69 -121
109 -45 40 -82 78 -82 83 0 6 18 37 40 69 28 41 49 62 68 66 69 15 85 28 143
117 33 49 59 93 59 99 0 5 -28 -24 -62 -66 -34 -41 -64 -73 -66 -71 -3 2 18
35 45 72 61 84 75 111 31 58 -48 -58 -101 -112 -92 -95 4 8 29 47 56 85 48 69
35 58 -50 -40 -53 -61 -40 -32 23 54 25 34 45 65 43 67 -3 2 -20 -18 -40 -44
-37 -48 -98 -109 -83 -82 5 8 25 38 45 65 60 82 55 84 -20 7 -78 -80 -90 -102
-90 -167 0 -37 -7 -51 -41 -92 -23 -26 -45 -49 -48 -50 -3 -1 -26 24 -51 55
-42 53 -45 61 -43 110 2 31 -3 65 -12 81 -29 56 -137 130 -191 131 -11 0 -29
-9 -39 -20z"/>
<path d="M1815 546 c-58 -22 -75 -48 -75 -113 0 -45 4 -58 25 -77 14 -13 37
-27 51 -30 14 -4 49 -16 78 -27 59 -22 74 -47 56 -93 -17 -45 -111 -55 -182
-20 -36 19 -38 18 -38 -11 0 -40 47 -58 141 -53 69 3 82 6 105 29 30 31 42 95
25 137 -13 32 -47 51 -133 76 -60 17 -78 36 -78 79 0 33 30 58 78 64 50 7 82
-10 82 -42 0 -20 5 -25 25 -25 22 0 25 4 25 40 0 31 -5 43 -24 55 -34 23 -114
28 -161 11z"/>
<path d="M2545 553 c-35 -9 -77 -45 -91 -79 -21 -51 -19 -239 4 -284 24 -48
74 -74 138 -74 112 2 154 62 154 220 -1 128 -20 176 -82 204 -42 19 -82 23
-123 13z m115 -71 c34 -34 45 -94 37 -188 -7 -77 -18 -99 -59 -120 -39 -20
-87 -12 -119 22 -21 22 -24 37 -28 117 -4 109 9 161 47 181 44 25 90 20 122
-12z"/>
<path d="M20 340 l0 -210 25 0 26 0 -1 166 c-1 91 0 167 3 170 2 2 29 -55 59
-128 48 -119 57 -133 78 -133 22 0 30 14 80 132 30 73 57 133 60 133 3 0 3
-76 1 -170 l-3 -170 26 0 26 0 0 210 0 210 -39 0 -39 0 -52 -130 c-29 -72 -56
-130 -60 -130 -4 0 -16 24 -28 53 -11 30 -34 88 -52 130 l-32 77 -39 0 -39 0
0 -210z"/>
<path d="M470 525 c0 -16 6 -25 15 -25 13 0 15 -27 15 -185 l0 -185 125 0
c118 0 125 1 125 20 0 19 -7 20 -95 20 l-95 0 0 70 0 70 75 0 c73 0 75 1 75
25 0 24 -2 25 -75 25 l-75 0 0 70 0 70 96 0 c93 0 95 1 92 23 -3 21 -6 22
-140 25 l-138 3 0 -26z"/>
<path d="M906 468 c-50 -165 -96 -325 -96 -332 0 -4 12 -6 27 -4 23 3 29 10
41 56 l15 53 86 -3 86 -3 14 -52 c13 -49 16 -53 43 -53 23 0 28 4 24 18 -3 9
-19 67 -36 127 -17 61 -43 147 -56 193 l-25 82 -49 0 -49 0 -25 -82z m94 -10
c6 -24 18 -65 26 -92 22 -77 22 -76 -52 -76 -52 0 -65 3 -61 14 4 11 26 84 53
179 9 29 23 19 34 -25z"/>
<path d="M1230 340 l0 -210 120 0 120 0 0 50 c0 47 -2 50 -25 50 -21 0 -25 -5
-25 -30 l0 -31 -67 3 -68 3 -3 188 -2 187 -25 0 -25 0 0 -210z"/>
<path d="M2070 526 c0 -15 7 -26 20 -29 19 -5 20 -14 20 -186 l0 -181 25 0
c24 0 25 2 25 70 l0 70 55 0 c114 0 155 37 155 142 0 112 -39 137 -212 138
-86 0 -88 -1 -88 -24z m214 -37 c44 -20 50 -105 11 -144 -20 -21 -34 -25 -80
-25 l-55 0 0 90 0 90 50 0 c27 0 60 -5 74 -11z"/>
<path d="M2810 525 c0 -22 4 -24 58 -27 l57 -3 3 -182 2 -183 25 0 25 0 0 185
0 185 60 0 c57 0 60 1 60 25 l0 25 -145 0 -145 0 0 -25z"/>
<path d="M3160 525 c0 -22 4 -24 58 -27 l57 -3 3 -182 2 -183 25 0 25 0 0 185
0 185 60 0 c57 0 60 1 60 25 l0 25 -145 0 -145 0 0 -25z"/>
<path d="M3500 525 c0 -16 6 -25 15 -25 13 0 15 -27 15 -185 l0 -185 125 0
c118 0 125 1 125 20 0 19 -7 20 -95 20 l-95 0 0 70 0 70 80 0 c79 0 80 0 80
25 0 25 -1 25 -80 25 l-80 0 0 70 0 70 95 0 c95 0 95 0 95 25 l0 25 -140 0
-140 0 0 -25z"/>
<path d="M3830 525 c0 -18 5 -25 20 -25 19 0 20 -7 20 -185 l0 -185 25 0 c23
0 24 3 27 78 l3 77 35 3 c34 3 36 1 75 -75 38 -75 42 -78 78 -81 31 -3 37 0
37 17 0 11 -9 22 -20 26 -18 6 -70 90 -70 114 0 5 9 13 20 16 49 15 67 132 30
192 -24 41 -67 53 -187 53 -93 0 -93 0 -93 -25z m218 -41 c18 -12 22 -25 22
-68 0 -67 -13 -78 -88 -80 l-57 -1 -3 69 c-2 38 -1 75 2 83 8 19 96 17 124 -3z"/>
</g>
</svg>
