<?xml version="1.0" standalone="no"?>
<!DOCTYPE svg PUBLIC "-//W3C//DTD SVG 20010904//EN"
 "http://www.w3.org/TR/2001/REC-SVG-20010904/DTD/svg10.dtd">
<svg version="1.0" xmlns="http://www.w3.org/2000/svg"
 width="300.000000pt" height="63.000000pt" viewBox="0 0 300.000000 63.000000"
 preserveAspectRatio="xMidYMid meet">
<metadata>
Created by potrace 1.10, written by Peter Selinger 2001-2011
</metadata>
<g transform="translate(0.000000,63.000000) scale(0.100000,-0.100000)"
fill="#000000" stroke="none">
<path d="M2761 476 c-28 -28 -51 -60 -51 -71 0 -10 -10 -29 -22 -42 -15 -16
-18 -27 -12 -33 7 -7 16 -4 29 10 10 11 27 20 37 20 18 0 138 97 138 111 0 4
-8 10 -17 13 -11 5 -30 -6 -57 -33 -36 -34 -43 -38 -55 -25 -11 13 -10 19 10
41 13 13 33 29 44 35 12 6 6 -4 -14 -26 -19 -19 -32 -38 -30 -41 3 -2 22 12
41 33 29 30 34 39 24 49 -11 9 -24 0 -65 -41z m69 -41 c-19 -19 -38 -35 -44
-35 -6 0 7 18 29 40 21 22 41 37 44 35 2 -3 -11 -21 -29 -40z"/>
<path d="M2467 503 c-13 -12 -7 -75 10 -103 19 -32 51 -50 92 -50 24 0 45 -18
117 -97 56 -63 96 -98 108 -98 46 0 26 34 -73 121 -83 71 -101 92 -101 115 0
45 -17 78 -52 99 -32 19 -88 27 -101 13z m107 -66 c16 -22 17 -29 6 -42 -19
-22 -35 -19 -64 16 -20 24 -24 34 -16 49 13 24 46 14 74 -23z"/>
<path d="M1080 473 c-31 -12 -50 -37 -50 -68 0 -36 16 -53 76 -83 23 -12 44
-28 47 -37 16 -40 -29 -65 -84 -46 -41 14 -39 14 -39 -8 0 -43 123 -40 152 3
14 20 8 73 -9 88 -10 9 -37 25 -59 36 -51 26 -60 46 -33 73 20 20 37 21 83 3
11 -4 16 0 16 14 0 25 -59 40 -100 25z"/>
<path d="M1481 467 c-87 -45 -94 -209 -10 -252 44 -23 85 -19 119 13 68 60 57
197 -20 237 -35 18 -57 19 -89 2z m94 -47 c23 -25 30 -107 13 -140 -29 -54
-103 -57 -127 -4 -18 41 -14 108 10 138 26 32 77 36 104 6z"/>
<path d="M150 348 c-14 -142 -14 -143 3 -143 17 0 25 30 26 100 2 91 13 96 46
19 l29 -67 31 69 32 69 7 -55 c3 -30 7 -73 9 -94 1 -29 7 -40 20 -42 21 -3 21
-2 5 149 -10 96 -15 117 -28 117 -11 0 -26 -22 -42 -62 -14 -35 -29 -62 -33
-61 -5 1 -20 29 -34 62 -42 97 -56 85 -71 -61z"/>
<path d="M410 340 l0 -130 75 0 c60 0 75 3 75 15 0 12 -13 15 -57 15 l-58 0 0
45 0 45 43 0 c31 0 42 4 42 15 0 11 -11 15 -42 15 l-43 0 0 40 0 40 58 0 c44
0 57 3 57 15 0 12 -15 15 -75 15 l-75 0 0 -130z"/>
<path d="M613 341 c-22 -72 -38 -133 -35 -135 11 -12 40 16 45 44 6 28 10 30
50 30 42 0 44 -1 53 -37 6 -22 16 -37 27 -39 9 -1 17 1 17 4 0 4 -18 63 -39
132 -31 99 -43 126 -58 128 -16 2 -25 -16 -60 -127z m87 -23 c0 -5 -14 -8 -31
-8 -23 0 -30 4 -26 14 3 8 11 34 18 58 l12 43 13 -50 c8 -27 14 -53 14 -57z"/>
<path d="M800 340 l0 -130 70 0 c56 0 70 3 70 15 0 11 -12 15 -52 15 l-53 0 3
115 c4 111 3 115 -17 115 -20 0 -21 -5 -21 -130z"/>
<path d="M1232 338 c3 -117 5 -133 21 -136 14 -3 17 4 17 47 l0 51 35 0 c49 0
85 36 85 85 0 57 -35 85 -105 85 l-56 0 3 -132z m115 76 c15 -24 15 -29 2 -53
-10 -18 -24 -27 -47 -29 l-32 -3 0 55 c0 55 0 56 30 56 21 0 35 -8 47 -26z"/>
<path d="M1650 455 c0 -10 11 -15 35 -15 l35 0 0 -120 c0 -100 3 -120 15 -120
13 0 15 20 15 120 l0 120 35 0 c24 0 35 5 35 15 0 12 -16 15 -85 15 -69 0 -85
-3 -85 -15z"/>
<path d="M1830 455 c0 -10 11 -15 35 -15 l35 0 0 -121 c0 -106 2 -120 16 -117
14 3 16 19 15 121 l-2 117 35 0 c25 0 36 4 36 15 0 12 -16 15 -85 15 -69 0
-85 -3 -85 -15z"/>
<path d="M2030 341 l0 -129 75 -4 c66 -3 75 -1 75 15 0 14 -9 17 -55 17 l-55
0 0 45 0 45 45 0 c35 0 43 3 39 15 -4 10 -20 15 -45 15 -39 0 -39 0 -39 40 l0
40 55 0 c42 0 55 3 55 15 0 12 -15 15 -75 15 l-75 0 0 -129z"/>
<path d="M2220 336 c0 -121 2 -134 17 -132 14 2 16 12 14 54 -2 50 -2 52 24
52 22 0 30 -8 49 -53 17 -38 30 -53 45 -54 26 -2 26 -4 -5 60 l-27 54 23 30
c17 24 20 38 15 62 -9 43 -39 61 -102 61 l-53 0 0 -134z m108 92 c7 -7 12 -24
12 -40 0 -30 -23 -48 -64 -48 -24 0 -26 3 -26 50 0 50 0 50 33 50 18 0 38 -5
45 -12z"/>
<path d="M2551 241 c-45 -41 -62 -63 -58 -75 11 -29 37 -17 96 47 44 46 56 65
49 75 -6 6 -13 12 -17 12 -3 -1 -35 -27 -70 -59z"/>
</g>
</svg>
